<svg width="10" height="17" viewBox="0 0 10 17" fill="none" xmlns="http://www.w3.org/2000/svg">
    <path d="M5.094 15.18C4.182 15.18 3.384 15 2.7 14.64C2.028 14.28 1.416 13.752 0.864 13.056L2.25 11.67C2.598 12.174 3.006 12.582 3.474 12.894C3.942 13.206 4.506 13.362 5.166 13.362C5.862 13.362 6.414 13.212 6.822 12.912C7.242 12.612 7.452 12.186 7.452 11.634C7.452 11.214 7.344 10.872 7.128 10.608C6.912 10.344 6.624 10.128 6.264 9.96C5.916 9.78 5.526 9.624 5.094 9.492C4.674 9.348 4.248 9.192 3.816 9.024C3.396 8.844 3.006 8.622 2.646 8.358C2.298 8.094 2.016 7.752 1.8 7.332C1.584 6.912 1.476 6.378 1.476 5.73C1.476 4.986 1.656 4.356 2.016 3.84C2.388 3.312 2.886 2.91 3.51 2.634C4.134 2.358 4.83 2.22 5.598 2.22C6.342 2.22 7.032 2.382 7.668 2.706C8.304 3.03 8.826 3.444 9.234 3.948L7.848 5.334C7.488 4.926 7.116 4.608 6.732 4.38C6.36 4.152 5.964 4.038 5.544 4.038C4.872 4.038 4.356 4.17 3.996 4.434C3.636 4.686 3.456 5.07 3.456 5.586C3.456 5.97 3.564 6.282 3.78 6.522C4.008 6.75 4.302 6.948 4.662 7.116C5.022 7.272 5.412 7.422 5.832 7.566C6.264 7.71 6.696 7.872 7.128 8.052C7.56 8.232 7.956 8.466 8.316 8.754C8.676 9.03 8.964 9.39 9.18 9.834C9.408 10.278 9.522 10.836 9.522 11.508C9.522 12.636 9.12 13.53 8.316 14.19C7.524 14.85 6.45 15.18 5.094 15.18ZM4.806 16.8V0.6H6.246V16.8H4.806Z" fill="#E50000"/>
</svg>
